<svg xmlns="http://www.w3.org/2000/svg" xmlns:xlink="http://www.w3.org/1999/xlink" width="25" height="24" viewBox="0 0 25 24"><defs><path id="behqa" d="M708.256 3307.272a.95.95 0 0 1-.96.953H690.48a.95.95 0 0 1-.96-.953v-10.124h2.219a6.79 6.79 0 0 0-.315 2.047c0 4 3.367 7.233 7.504 7.233 4.153 0 7.519-3.234 7.519-7.233 0-.703-.11-1.406-.315-2.047h2.124zm-4.468-8.327c0 2.578-2.17 4.671-4.86 4.671-2.674 0-4.845-2.093-4.845-4.671 0-2.578 2.17-4.671 4.845-4.671 2.69 0 4.86 2.093 4.86 4.67zm4.468-5.625c0 .594-.488 1.078-1.085 1.078h-2.738a1.084 1.084 0 0 1-1.085-1.078v-2.578c0-.593.488-1.078 1.085-1.078h2.738c.597 0 1.085.485 1.085 1.078zm2.737-3.25c0-1.687-1.4-3.077-3.099-3.077H689.93c-1.699 0-3.1 1.39-3.1 3.078v17.842c0 1.687 1.401 3.077 3.1 3.077h17.964c1.7 0 3.1-1.39 3.1-3.077z"/></defs><g><g transform="translate(-686 -3287)"><use fill="#f5d76e" xlink:href="#behqa"/></g></g></svg>