<svg xmlns="http://www.w3.org/2000/svg" xmlns:xlink="http://www.w3.org/1999/xlink" width="25" height="20" viewBox="0 0 25 20"><defs><path id="lflba" d="M657.723 3291.367c-.912.391-1.903.672-2.925.781a5.04 5.04 0 0 0 2.233-2.78c-.975.578-2.076 1-3.224 1.218a5.085 5.085 0 0 0-3.713-1.593c-2.816 0-5.08 2.265-5.08 5.046 0 .39.046.781.125 1.156a14.475 14.475 0 0 1-10.476-5.28 5.034 5.034 0 0 0 1.573 6.75 5.145 5.145 0 0 1-2.297-.642v.063c0 2.453 1.746 4.484 4.074 4.952a5.41 5.41 0 0 1-1.337.172c-.33 0-.645-.031-.96-.078.645 2 2.517 3.453 4.751 3.5a10.219 10.219 0 0 1-6.308 2.156c-.425 0-.818-.016-1.227-.063a14.427 14.427 0 0 0 7.803 2.265c9.343 0 14.456-7.686 14.456-14.357 0-.219 0-.438-.016-.657a10.88 10.88 0 0 0 2.548-2.609z"/></defs><g><g transform="translate(-633 -3289)"><use fill="#fff" xlink:href="#lflba"/></g></g></svg>